<svg xmlns="http://www.w3.org/2000/svg" viewBox="0 0 1320 1320">
  <rect width="1320" height="1320" fill="#000"/>
  <g transform="translate(80, 960.0) scale(1, -1)" fill="#fff">
    <path d="M21 24H130V776H21V800H384L487 694V560L394 468L517 345V135L384 0H21ZM345 25 437 147V333L345 455H210V25ZM345 480 407 572V682L345 775H210V480Z"/>
    <g transform="translate(590, 0)">
      <path d="M126 24H242V388L96 776H11V800H284V776H183L298 452H310L406 724L381 776H324V800H559V776H508L433 724L322 419V24H438V0H126Z"/>
    </g>
  </g>
</svg>